<svg xmlns="http://www.w3.org/2000/svg" viewBox="0 0 58.84 58.84"><defs><style>.cls-1,.cls-2{fill:none;stroke-linecap:round;stroke-miterlimit:10;stroke-width:3.31px;}.cls-1{stroke:#050606;}.cls-2{stroke:#90d7f0;}</style></defs><title>radial</title><g id="Layer_2" data-name="Layer 2"><g id="Layer_1-2" data-name="Layer 1"><path class="cls-1" d="M29.42,29.42a17.63,17.63,0,0,1,6.07-8.87c5-4.14,8.55,2,13,2s8-.92,5.24-7.26-8.55-3.86-8.55-3.86"/><path class="cls-2" d="M29.42,29.42a17.63,17.63,0,0,1-6.07,8.87c-5,4.14-8.55-2-13-2s-8,.92-5.24,7.26,8.55,3.86,8.55,3.86"/><path class="cls-2" d="M29.56,29.42a17.63,17.63,0,0,1-8.87-6.07c-4.14-5,2-8.55,2-13s-.92-8-7.26-5.24-3.86,8.55-3.86,8.55"/><path class="cls-2" d="M29.56,29.42a17.63,17.63,0,0,1,8.87,6.07c4.14,5-2,8.55-2,13s.92,8,7.26,5.24,3.86-8.55,3.86-8.55"/><path class="cls-2" d="M29.33,29.42a17.63,17.63,0,0,1-2-10.56c.63-6.48,7.47-4.61,10.59-7.73s5-6.3-1.43-8.84-8.77,3.31-8.77,3.31"/><path class="cls-2" d="M29.33,29.42a17.63,17.63,0,0,1,2,10.56c-.63,6.48-7.47,4.61-10.59,7.73s-5,6.3,1.43,8.84,8.77-3.31,8.77-3.31"/><path class="cls-2" d="M29.42,29.33a17.63,17.63,0,0,1-10.56,2c-6.48-.63-4.61-7.47-7.73-10.59s-6.3-5-8.84,1.43,3.31,8.77,3.31,8.77"/><path class="cls-2" d="M29.42,29.33a17.63,17.63,0,0,1,10.56-2c6.48.63,4.61,7.47,7.73,10.59s6.3,5,8.84-1.43-3.31-8.77-3.31-8.77"/></g></g></svg>