<svg xmlns="http://www.w3.org/2000/svg" viewBox="0 0 48.89 57.71"><defs><style>.cls-1{fill:#010101;}.cls-2{fill:#cc8b5a;}.cls-3{fill:none;stroke:#90d7f0;stroke-linecap:round;stroke-miterlimit:10;stroke-width:4px;}</style></defs><title>select_icon</title><g id="Layer_2" data-name="Layer 2"><g id="Layer_1-2" data-name="Layer 1"><path class="cls-1" d="M17.22,12.87a4.64,4.64,0,0,0-2.86,2.64c-.31.65-.31.72-.38,11.12l-.07,10.49-1-1.78c-1.17-2-1.69-2.61-2.79-3.12a3.56,3.56,0,0,0-1.82-.36,3.46,3.46,0,0,0-2,.46,3.94,3.94,0,0,0-2.22,4c0,1.6.32,2.64,2.07,6.87,2.33,5.61,5,10.35,7.35,13.11,1.11,1.32,1.61,1.58,2.42,1.35A1.41,1.41,0,0,0,17,56a2.73,2.73,0,0,0-.81-1.39c-2.69-3.07-5.54-8.36-8.26-15.37a8.29,8.29,0,0,1-.69-2.67c-.07-1-.06-1.08.28-1.42A1.09,1.09,0,0,1,9,35.12a44.74,44.74,0,0,1,2.68,4.35c1.29,2.22,2.54,4.26,2.78,4.5a1.36,1.36,0,0,0,2,.06l.46-.4L17,30.16c.07-14.65,0-13.78.87-14.28a1.65,1.65,0,0,1,2,.33l.43.43.07,9.49c.08,10.57,0,10,1,10.37a1.49,1.49,0,0,0,1.75-.61c.25-.4.26-.74.26-4.57,0-4.43,0-4.68.72-5.15a2.13,2.13,0,0,1,1.86,0c.72.49.75.67.75,5.43,0,4.11,0,4.44.26,4.85a1.51,1.51,0,0,0,2.53,0c.24-.39.26-.72.26-3.81,0-3.71.06-4,.83-4.4a1.72,1.72,0,0,1,2.29.62c.17.33.21,1,.21,3.75,0,3.68.06,4,.83,4.37a1.32,1.32,0,0,0,1.39,0c.71-.36.83-.81.83-3,0-1.78,0-2,.32-2.4a2.09,2.09,0,0,1,.82-.65c.74-.29,1.44.08,1.9,1,.33.65.33.75.4,4.86.12,7.64-.44,13.49-1.65,17.08-.53,1.61-.53,1.94.07,2.54a1.42,1.42,0,0,0,2.31-.25c.92-1.5,1.85-6.29,2.22-11.39.17-2.44.18-10.92,0-12.22-.46-3.49-3.57-5.68-6.4-4.5-.17.07-.26,0-.39-.39a5.15,5.15,0,0,0-2.33-2.32,3.28,3.28,0,0,0-1.9-.44,6.45,6.45,0,0,0-1.63.22c-.57.21-.62.21-.75,0a7,7,0,0,0-.74-.87,4.76,4.76,0,0,0-4.37-1.33l-.65.11,0-3.44c0-3.39,0-3.46-.4-4.22a4.67,4.67,0,0,0-4.07-2.72A4.08,4.08,0,0,0,17.22,12.87Z"/><path class="cls-1" d="M38.07,56.45a1.42,1.42,0,0,0,2.31-.25c.92-1.5,1.85-6.29,2.22-11.39.17-2.44.18-10.92,0-12.22-.46-3.49-3.57-5.68-6.4-4.5-.17.07-.26,0-.39-.39a5.15,5.15,0,0,0-2.33-2.32,3.28,3.28,0,0,0-1.9-.44,6.45,6.45,0,0,0-1.63.22c-.57.21-.62.21-.75,0a7,7,0,0,0-.74-.87,4.76,4.76,0,0,0-4.37-1.33l-.65.11,0-3.44c0-3.39,0-3.46-.4-4.22a4.67,4.67,0,0,0-4.07-2.72,4.08,4.08,0,0,0-1.71.21,4.64,4.64,0,0,0-2.86,2.64c-.31.65-.31.72-.38,11.12l-.07,10.49-1-1.78c-1.17-2-1.69-2.61-2.79-3.12a3.56,3.56,0,0,0-1.82-.36,3.46,3.46,0,0,0-2,.46,3.94,3.94,0,0,0-2.22,4c0,1.6.32,2.64,2.07,6.87,2.33,5.61,5,10.35,7.35,13.11,1.11,1.32,1.61,1.58,2.42,1.35A1.41,1.41,0,0,0,17,56"/><path class="cls-2" d="M17,56a2.73,2.73,0,0,0-.81-1.39c-2.69-3.07-5.54-8.36-8.26-15.37a8.29,8.29,0,0,1-.69-2.67c-.07-1-.06-1.08.28-1.42A1.09,1.09,0,0,1,9,35.12a44.74,44.74,0,0,1,2.68,4.35c1.29,2.22,2.54,4.26,2.78,4.5a1.36,1.36,0,0,0,2,.06l.46-.4L17,30.16c.07-14.65,0-13.78.87-14.28a1.65,1.65,0,0,1,2,.33l.43.43.07,9.49c.08,10.57,0,10,1,10.37a1.49,1.49,0,0,0,1.75-.61c.25-.4.26-.74.26-4.57,0-4.43,0-4.68.72-5.15a2.13,2.13,0,0,1,1.86,0c.72.49.75.67.75,5.43,0,4.11,0,4.44.26,4.85a1.51,1.51,0,0,0,2.53,0c.24-.39.26-.72.26-3.81,0-3.71.06-4,.83-4.4a1.72,1.72,0,0,1,2.29.62c.17.33.21,1,.21,3.75,0,3.68.06,4,.83,4.37a1.32,1.32,0,0,0,1.39,0c.71-.36.83-.81.83-3,0-1.78,0-2,.32-2.4a2.09,2.09,0,0,1,.82-.65c.74-.29,1.44.08,1.9,1,.33.65.33.75.4,4.86.12,7.64-.44,13.49-1.65,17.08-.53,1.61-.53,1.94.07,2.54"/><path class="cls-3" d="M2,7.18c1,0,3.76-7.44,11.81-4.49,11.1,4.06,12.64,17.7,23.79,19.8a30.46,30.46,0,0,0,9.29,0"/></g></g></svg>