<svg xmlns="http://www.w3.org/2000/svg" viewBox="0 0 25 75"><defs><style>.cls-1{fill:#66bc46;stroke-width:0.42px;}.cls-1,.cls-2{stroke:#fff;stroke-miterlimit:10;}.cls-2,.cls-4{fill:none;}.cls-2{stroke-width:0.42px;}.cls-3{fill:#fff;}</style></defs><title>behavior_list_image</title><g id="Layer_2" data-name="Layer 2"><g id="Layer_1-2" data-name="Layer 1"><circle class="cls-1" cx="12.5" cy="12.5" r="6"/><circle class="cls-2" cx="12.5" cy="37.5" r="6"/><rect class="cls-3" x="7.08" y="59.07" width="10.83" height="1.49"/><path class="cls-3" d="M12.5,57.72a1.22,1.22,0,0,1,1.07,1.35h1.22A2.41,2.41,0,0,0,12.5,56.5a2.41,2.41,0,0,0-2.29,2.57h1.22A1.22,1.22,0,0,1,12.5,57.72Z"/><path class="cls-3" d="M7.83,61.22l.93,7.28h7.47l.93-7.28Zm2.36,6.51h0a.35.35,0,0,1-.35-.32l-.37-4.67a.35.35,0,0,1,.32-.38.36.36,0,0,1,.38.32l.37,4.67A.35.35,0,0,1,10.19,67.73Zm2.66-.35a.35.35,0,1,1-.7,0V62.71a.35.35,0,0,1,.7,0Zm2.33,0a.35.35,0,0,1-.35.32h0a.35.35,0,0,1-.32-.38l.37-4.67a.35.35,0,0,1,.7.06Z"/><rect class="cls-4" width="25" height="75"/></g></g></svg>